<?xml version="1.0" encoding="UTF-8"?>
<svg id="Layer_1" data-name="Layer 1" xmlns="http://www.w3.org/2000/svg" viewBox="0 0 448.13 500.22">
  <defs>
    <style>
      .cls-1 {
        fill: #e6e7e8;
      }
    </style>
  </defs>
  <path class="cls-1" d="M226.8,13.09c-68.99-1.07-161.8,44.45-190.2,155.03-17.96,69.93-5.85,149.06,26.98,204.12,56.93,95.48,156.07,84.87,200.73,80.1,45.97-4.92,119.04-12.73,153.35-84.4,40.33-84.25,2.99-206.36-46.07-273.02C313.53,16.02,237.91,13.26,226.8,13.09Z"/>
  <path d="M211.07,215.11c-1.78.3-4.19.93-7.37,2.55-5.65,2.88-21.38,10.91-24.38,27.78-3.74,21.04,15.87,35.82,17.29,36.85,3.24,2.36,9.65,6.9,18.71,7.09,15.76.32,25.83-12.85,27.5-15.02.75-.97,14.08-19,5.95-37.42-5.03-11.4-15.34-16.29-19.84-18.43-3.85-1.83-10.16-4.72-17.86-3.4Z"/>
  <path d="M283.69,305.6c35.12-15.34,20.93-55.31,68.03-102.61,24.73-24.83,57.26-43.65,57.26-43.65,23.8-13.77,39.96-18.4,39.12-21.54-1.17-4.37-34.66-3.52-65.76,10.2-7.2,3.18-31.84,14.8-54.43,41.95-34.56,41.55-23.55,70.46-54.43,91.28-25.34,17.08-53.26,11.43-53.29,16.44-.04,5.63,35.16,20.31,63.5,7.94Z"/>
  <path d="M200.94,329.47c29.94,23.93,58.69-7.27,122.5,12.36,33.5,10.3,65.31,30.31,65.31,30.31,23.28,14.64,34.91,26.78,37.29,24.57,3.32-3.07-13.04-32.3-39.68-53.43-6.17-4.89-27.93-21.27-62.48-28.6-52.87-11.21-73.32,12.01-106.12-5.61-26.92-14.46-34.93-41.79-39.39-39.49-5,2.59-1.58,40.57,22.57,59.88Z"/>
  <path d="M142.07,275.08c-3.59,38.16,38.26,45.09,56.84,109.21,9.75,33.66,10.47,71.24,10.47,71.24.52,27.49-3.25,43.87-.09,44.66,4.39,1.09,19.86-28.62,22.91-62.48.71-7.84,2.47-35.02-10.36-67.93-19.62-50.35-50.25-54.72-53.51-91.81-2.67-30.44,15.79-52.13,11.42-54.59-4.91-2.76-34.8,20.93-37.69,51.71Z"/>
  <path d="M159.47,188.98c-34.41,16.88-18.45,56.19-63.41,105.53-23.6,25.91-55.26,46.15-55.26,46.15-23.17,14.81-39.1,20.16-38.12,23.26,1.36,4.32,34.78,1.98,65.25-13.12,7.05-3.49,31.15-16.2,52.51-44.33,32.68-43.04,20.39-71.44,50.32-93.6,24.56-18.19,52.7-13.78,52.51-18.79-.21-5.63-36.03-18.73-63.79-5.11Z"/>
  <path d="M231.37,160.73c-32.36-20.53-57.56,13.59-123.11,1.01-34.42-6.61-68.22-23.04-68.22-23.04C15.31,126.67,2.43,115.87.3,118.32c-2.97,3.42,16.47,30.7,45.25,48.8,6.66,4.19,30.08,18.11,65.22,21.64,53.77,5.4,71.58-19.9,106.1-5.95,28.33,11.45,39.27,37.75,43.44,34.98,4.69-3.12-2.83-40.51-28.94-57.07Z"/>
  <path d="M295.26,229.57c6.44-37.78-34.76-47.84-48.47-113.17-7.2-34.3-5.08-71.82-5.08-71.82,1.54-27.45,6.54-43.5,3.45-44.52-4.3-1.42-21.96,27.04-27.55,60.58-1.29,7.76-5.1,34.74,5.22,68.52,15.78,51.69,46,58.34,46.46,95.58.38,30.55-19.66,50.8-15.49,53.58,4.69,3.12,36.27-18.25,41.47-48.73Z"/>
</svg>