<?xml version="1.0" encoding="UTF-8"?>
<svg id="Layer_1" data-name="Layer 1" xmlns="http://www.w3.org/2000/svg" viewBox="0 0 595.28 414.43">
  <defs>
    <style>
      .cls-1 {
        fill: #231f20;
      }

      .cls-2 {
        fill: #fff;
      }

      .cls-3 {
        fill: #e6e7e8;
      }
    </style>
  </defs>
  <path class="cls-3" d="M235.29,53c-18.05,6.72-94.23,35.09-113.51,114.56-12.08,49.81,2.43,102.15,28.86,136.5,61.5,79.93,185.57,59.87,252.67,18.8,14.12-8.64,34.44-21.42,49.7-47.36,29.73-50.53,23.17-122.01-6.41-168.88-47.74-75.65-148.89-76.87-211.3-53.62Z"/>
  <path class="cls-1" d="M423.09,182.86c-8.83-.31-11.83,17.86-26.58,38.02-3.98,5.43-12.75,17.08-27.02,26.67-19.49,13.09-36.53,13.75-37.24,22.96-.19,2.48.82,5.41,2.87,6.97,8.78,6.71,33.26-14.18,47.24-26.12,2.91-2.48,15.73-13.77,29.61-31.83,19.21-24.98,18.64-30.46,17.33-32.86-1.17-2.14-3.7-3.71-6.21-3.8Z"/>
  <path class="cls-1" d="M552.41,167.94c-.48-2.97-7.15-5.4-37.82-6.23-41.29-1.11-73.46-1.98-76.65,9.63-1.07,3.9,1.44,8.39,3.82,10.95,10.66,11.47,32.17-3.47,66.93-6.97,2.59-.26,3.89-.4,5.63-.48,16.35-.79,22.08,4.29,30.25.76,3.41-1.48,8.29-4.9,7.84-7.66Z"/>
  <path class="cls-1" d="M389.54,264.19c6.67.02,18.23-6.33,22.58-8.66,32.11-17.13,58.49-20.36,58.4-24.96-.04-2.01-4.69-2.96-5.11-3.05-3.39-.66-7.92-.14-30.36,7.73-39.58,13.89-46.46,18.68-48.84,22.29-2.07,3.12-1.57,6.63,3.32,6.64Z"/>
  <path class="cls-1" d="M228.99,119.71c-4.55-11.22-22.64-15.29-34.22-15.36-18.96-.11-33.3,10.4-39.36,15.64-13.49,11.68-13.68,21.25-27.69,60.48-16.13,45.16-28.32,67.3-19.38,74.31.38.3,2.99,2.28,6.24,1.8,12.48-1.85,11.68-36.68,28.12-86.94,11.28-34.49,19.75-42.84,28.31-47.23,3.07-1.58,18.49-8.98,34.57-4.49,12.03,3.36,20.28,12.21,23.51,9.63,1.82-1.45.84-5.55-.09-7.85Z"/>
  <path class="cls-2" d="M196.36,25.29c-.66.09-1.33.19-1.99.3"/>
  <path class="cls-1" d="M400.07,183.33c1.39,1.83,4.93-.62,18.64-.62h0c1.19-.21,3.13-.63,5.33-1.51.78-.31,3.59-1.53,6.86-4.3,2.6-2.2,5.75-4.86,5.18-6.31-.21-.53-.98-1.08-10.36-.5-7.42.46-7.83.86-12.35.91-4.79.05-5.2-.38-6.79.25-5.22,2.08-8.28,9.75-6.51,12.08Z"/>
  <path class="cls-1" d="M466.74,203.97c-1.72-1.92-6.74.37-21.63,8.34,0,0-31.35,16.78-30.45,22.92.05.34,1.05,3.22,1.05,3.22,0,0,0,0,0,0,.64-.88,1.59,0,3.35,1.15,2.22,1.44,18.84-12.31,32.02-18.45,6.23-2.9,11.59-4.05,14.58-9.71,1.04-1.97,2.52-5.86,1.08-7.47Z"/>
  <path class="cls-1" d="M50.32,229c11.08,9.76,29.32,22.8,53.31,25.64,27.33,3.24,40.85-9.28,99.68-35.11,0,0,91.58-40.2,117.61-22.91,1.04.69,4.13,2.75,3.82,4.73-.63,4.03-14.81,4.72-19.12,4.98-31.04,1.86-73.84,12.94-96.81,21.16-19.71,7.05-19.36,10.05-54.98,23.9-18.11,7.04-27.16,10.56-34.66,11.7-41.47,6.3-70.14-17.85-74.58-25.89-.75-1.35-2.57-4.66-1.31-6.72,1.48-2.42,6.3-1.63,7.04-1.49Z"/>
  <path class="cls-1" d="M431.3,184.42c1.29,7.61,26.73,1.33,39.32,15.44,6.5,7.28,7.98,18.21,6.21,26.14-.89,4.01-2.76,7.91-16.88,21.89-17.84,17.66-30.34,26.77-28.42,30.89.2.43.65,1.01,2.15,1.49,10.92,3.5,30.29-13.66,42.43-30.13,8.09-10.98,16.02-22.06,14.1-35.35-1.02-7.08-4.61-13.24-5.62-14.94-4.8-8.1-10.81-12.39-14.1-14.69,0,0-11.98-8.37-28.68-8.84-2.84-.08-6.25.13-8.45,2.56-1.21,1.33-2.38,3.68-2.06,5.53Z"/>
  <path class="cls-1" d="M343.21,196.49c1.33-.99,1.81-2.31,4.31-4.05,0,0,2.7-1.88,6.08-2.68,5.57-1.32,8.53,1.9,16.04,3.52,5.23,1.13,9.15.69,16.99-.19,11.29-1.27,12.7-3.71,13.06-4.47,1.04-2.19.43-5.19-1.04-7.11-3.12-4.06-9.59-2.66-18.61-2.02-20.15,1.44-20.74-3.19-32.89-.05-8.64,2.24-20.67,7.76-20.3,12.31.34,4.26,11.62,8.28,16.37,4.75Z"/>
  <path class="cls-1" d="M236.9,128.72c5.49,7.42,18.4,2.03,34.43,3.6,9.21.9,16.71,4.45,31.71,11.54,11.16,5.28,20.35,10.99,38.25,22.25,19.87,12.5,31.02,20.47,35.52,16.62,1.51-1.3,1.68-3.42,1.72-3.93.69-8.84-15.57-14.2-45.24-30.71-12.88-7.17-17.89-10.29-28.7-15.35-9.94-4.65-18.59-8-21.93-9.18-17.6-6.22-44.58-8.15-47.41-.92-.98,2.51,1.21,5.48,1.65,6.07Z"/>
  <path class="cls-1" d="M166.18,268.88c9.31,1.83,14.33-6.77,29.43-15.7,13.22-7.81,21.95-12.97,33.36-12.36,5.65.31,12.04,2.03,15.3-1.83,1.72-2.03,2.61-5.67,1.27-7.97-3.6-6.17-22.31-.71-35.54,3.15-9.08,2.65-21.6,7.08-35.06,15.93-5.93,3.9-15.92,10.58-14.66,15.1.74,2.64,5,3.48,5.9,3.65Z"/>
  <path class="cls-1" d="M276.83,135.53c-4.86,2.82,1.97,24.93,8.07,39.02,1.47,3.38,11.06,25.54,16.79,24.06,1.21-.31,1.86-1.58,2.07-1.99,2.29-4.46-3.6-10.22-8.61-20.42-4.2-8.57-6.13-16.92-7.17-21.41-2.17-9.39-2.51-16.39-7.33-18.76-.84-.41-2.54-1.24-3.82-.5Z"/>
  <path class="cls-1" d="M523.51,209.81c-13.28,1.1-16.5,19.7-32.21,39.57-19.56,24.74-43.1,32.05-40.8,38.1,1.35,3.54,10.3,2.83,11.47,2.73,12.8-1.02,22.84-12.75,42.39-36.18,23.4-28.04,30.56-36.82,27.73-41.5-1.98-3.27-7.77-2.79-8.58-2.72Z"/>
  <path class="cls-1" d="M51.44,223.83c8.31,14.02,32.5-1.91,62.95,12.12,10.45,4.82,19.82,12.33,23.74,8.8,2.08-1.87,1.82-6.12.96-8.96-2.71-8.85-13.61-11.28-50.99-20.25-24.96-5.99-34.36-8.32-37.61-3.49-2.05,3.05-1.15,8.22.96,11.78Z"/>
</svg>