<?xml version="1.0" encoding="UTF-8"?>
<svg id="Layer_1" data-name="Layer 1" xmlns="http://www.w3.org/2000/svg" xmlns:xlink="http://www.w3.org/1999/xlink" viewBox="0 0 772.07 1191.51">
  <defs>
    <style>
      .cls-1 {
        fill: #e7e8e9;
      }

      .cls-2 {
        fill: none;
      }

      .cls-3 {
        clip-path: url(#clippath);
      }
    </style>
    <clipPath id="clippath">
      <path class="cls-2" d="M81.25,554.98c-.87,15.02-.13,30.19,2.97,44.75,27.93,130.91,148.49,264.72,290.54,264.72,129.33,2.88,307.25-110.31,303.98-318.61-3.33-212.21-210.6-260.24-291.74-262.96-75.92-2.55-220.44,2.5-286.74,116.32-9.61,16.49-12.01,34.82-13.35,57.96-1.34,23.14-5.66,97.82-5.66,97.82Z"/>
    </clipPath>
  </defs>
  <path class="cls-1" d="M182.32,237.64c-32.61,19.25-120.26,71.01-161.64,183.08-61.09,165.46,31.28,320.02,44.84,341.91,87.72,141.67,246.85,196.75,380.17,181.87,33.63-3.75,207.53-23.17,289.37-183.08,72.34-141.36,19.86-289.16-.38-336.66-53.19-124.83-149.89-181.61-183.87-199.25-181.47-94.19-354.48,3.85-368.49,12.12Z"/>
  <g class="cls-3">
    <image width="5688" height="9060" transform="translate(70.79) scale(.11 .13)" xlink:href="D:\IMAMs_Mater Study\Buffalo\Arc606\Portfolio\Cover2.png"/>
  </g>
</svg>