<?xml version="1.0" encoding="UTF-8"?>
<svg id="Layer_1" data-name="Layer 1" xmlns="http://www.w3.org/2000/svg" viewBox="0 0 916.16 1007">
  <defs>
    <style>
      .cls-1 {
        fill: #231f20;
      }

      .cls-2 {
        fill: #e6e7e8;
      }
    </style>
  </defs>
  <path class="cls-2" d="M442.01.66c-23.11,1.02-196.4,11.11-315.99,136.78-158.07,166.12-184.58,494.52,19.91,685.65,198.04,185.1,520.27,155.06,671.3-12.86,124.18-138.07,98.98-331.95,92.27-383.64-5.89-45.33-33.06-254.38-212.1-364.47C589.25-4.38,480.55-1.04,442.01.66Z"/>
  <path class="cls-1" d="M349.09,794.52c-26.84-1.82-66.52-3.6-114.66-2.22-78.96,2.26-91.61,10.55-108.32.34-46.3-28.29.62-118.41-6.4-287.17-10.3-247.57-25.38-344.3-25.38-344.3-2.48-15.93-9.94-61.47,14.35-82.01,17.79-15.04,44.78-10.03,53.31-8.54,28.17,4.91,112.68.08,281.56,4.1,101.19,2.41,248.59-17.04,347.17,0,6.32,1.09,17.96,3.53,28.7,12.3,35.54,29,19.66,94.21,11.96,169.48-9.51,92.91,7.63,62.44,2.05,232.7-5.22,159.09-18.98,149.08-8.54,204.68,5.91,31.49,15.28,61.18-1.37,82.01-12.91,16.16-31.77,14.8-99.78,19.14-105.2,6.71-127.69,14.25-143.52-4.1-15.4-17.86-17.1-51.68-2.73-66.97,7.9-8.41,19.2-9.67,25.29-10.25,70.42-6.72,109.73,13.99,133.95,1.37,23.2-12.09,20.96-48.74,19.82-166.41-.82-85.04-5.21-170.04-4.52-255.08.69-85.04,4.69-109.83-15.98-131.39-21.78-22.72-49.2-19.15-153.77-17.43-153.83,2.53-230.76,2.85-250.08,1.99-81.41-3.6-121.88-11.58-141.51,14.41-13.92,18.43-6.81,39.98-1.37,81.67,3.34,25.6,2.45,84.56-3.76,202.29-3.21,60.74-1.06,121.65-2.05,182.47-.63,38.69-1.24,67.93,18.11,82.69,18.77,14.32,51.99,11.3,97.04,8.2,29.39-2.02,40.23-6.03,49.21,1.37,15.75,12.99,9.51,46.85,1.21,74.66Z"/>
  <path class="cls-1" d="M427.49,612.22c-27.98,22.87-1.62,68.69,0,166.07,2.05,123.58-38.28,178.22-3.08,211.17,20.53,19.22,58.85,23.65,79.96,8.2,34.57-25.31-2.58-85.23,4.1-213.22,4.96-95.01,29.36-137.45,1.03-165.04-20.75-20.21-61.26-24.14-82.01-7.18Z"/>
  <path class="cls-1" d="M489,520.99c35.28-9.36,54.77-34.29,61.51-44.08,6.37-9.25,21.89-34.8,19.48-69.71-.52-7.52-3.38-48.88-37.93-74.83-25.53-19.18-53.36-18.67-65.61-18.45-12.44.23-49.44.9-76.88,29.73-28.32,29.75-26.29,68.28-25.63,80.98.72,13.67,2.86,54.5,36.9,80.98,35.78,27.84,78.64,17.9,88.16,15.38Z"/>
</svg>