<?xml version="1.0" encoding="UTF-8"?>
<svg id="Layer_1" data-name="Layer 1" xmlns="http://www.w3.org/2000/svg" viewBox="0 0 400.73 392.1">
  <defs>
    <style>
      .cls-1 {
        fill: #231f20;
      }

      .cls-2 {
        fill: #e6e7e8;
      }
    </style>
  </defs>
  <path class="cls-2" d="M74.23,54.29C58.08,68.38,4.82,114.83.3,190.61c-4.18,70.25,35.49,132.8,84.1,166.17,85.57,58.74,225.28,45.25,286.89-48.15,44.57-67.57,35.27-157.22-6.1-219.07C359.62,81.23,304.49,1.71,208.52.03c-70.66-1.24-118.51,40.5-134.29,54.26Z"/>
  <path class="cls-1" d="M201.06,179.53c-8.18.9-13.09,6.48-15.15,8.82-1.94,2.2-5.29,6.01-6.1,11.98-1.11,8.15,3.34,14.26,4.52,15.83,4.19,5.56,9.68,7.51,11.53,8.14,2.15.73,10.38,3.19,18.99-1.13,1.99-1,8.84-4.57,11.53-12.66,2.47-7.41-.16-13.79-1.13-16.05-2.72-6.33-7.38-9.74-9.5-11.08-2.05-1.3-7.47-4.64-14.7-3.84Z"/>
  <path class="cls-1" d="M202.87,163.48c6.95,1.86,10.32.09,18.31,3.62,8.08,3.57,12.94,9.04,14.65,11.11,8.28,10.08,9,21.17,9.09,24.38.09,3.13.24,12.36-5.43,21.48-10.44,16.8-31.17,17.99-33.46,18.09-18.05.75-35.16-10.12-38.21-19.44-.33-.99-.92-3.29-2.71-5.88-3.1-4.49-7.32-6.3-11.98-8.36-18.61-8.23-21.35-10.24-24.42-8.36-1.38.84-2.84,2.49-3.84,6.78-3.92,16.88,8.7,34.56,12.43,39.79,3.87,5.43,12.85,17.68,29.84,26.23,19.21,9.66,37.08,8.74,44.54,7.91,31.14-3.46,49.32-24.13,52.45-27.81,4.12-4.84,18.1-21.74,18.99-47.02,1.2-33.88-22.05-55.98-27.13-60.82-8.62-8.2-16.88-12.32-18.99-13.34-8.65-4.18-16.1-5.18-30.97-7.23-9.03-1.25-14-1.29-19.44.68-3.87,1.4-8.39,3.04-9.95,6.78-3.65,8.8,9.96,27.07,26.23,31.42Z"/>
  <path class="cls-1" d="M165.16,211.47c.96-.67.71-2.09.63-3.14-1.14-6.6-.51-11.77,4.32-16.72,1.43-1.83,1.59-4.34.95-6.52-.31-1.12-.79-2.25-.93-3.53-.57-3.99,2.51-7.13,5.39-9.36,4.15-3.6,9.61-5.17,14.61-7,1.51-.65,1.49-1.44.37-2.56-1.55-1.51-3.46-3.16-5.32-4.33-2.02-1.28-4.43-1.93-6.39-3.5-6.15-4.8-7.94-13.64-6.05-20.87.1-.58.22-1.19.16-1.48,0,.18.41.42.51.36-2.81,1.65-5.13,4.18-7.95,6.04-3,2.13-6.21,4.08-9.62,5.52-2.05.92-4.28,1.4-5.87,2.88-1.5,1.41-2.6,3.03-3.02,5.11-.44,2.29-1.12,5.14-2.38,7.26-1.27,2.32-2.86,4.43-4.88,6.16-1.75,1.57-3.81,2.45-5.07,4.24-2.1,2.71-1.55,5.94-1.76,9.24-.2,2.51-.59,4.93-1.1,7.34-.37,2.05-1.4,4.87-1.74,6.67,0,1.68,1.79,2.59,3.54,2.95,2.19.52,4.64.84,7.01,1.43,4.75,1.11,9.29,3.17,13.26,5.99,1.99,1.37,3.83,2.94,5.62,4.52,1.35,1.13,2.61,2.45,4.17,3.25.51.24,1.07.32,1.52.04h0ZM165.37,211.8c-2.09,1.12-4.7-2.07-6.31-3.15-5.38-4.58-11.9-7.93-18.9-8.89-3.79-.8-8.14-.02-11.58-2.61-.41-.44-.89-.9-1.15-1.43-.89-1.19-.8-3.36-.4-4.66,1.52-5.75,1.98-11.53,1.93-17.46.2-2.17,1.05-4.15,2.28-5.95,1.47-2.21,3.93-3.47,5.79-4.99,2.4-2.03,4.36-4.91,5.31-7.85.7-2.25,1.04-5.08,2.52-7.2.79-1.18,1.65-2.15,2.71-3.08,1.99-1.79,4.64-2.41,6.95-3.34,3.22-1.28,6.22-3.01,9.1-4.95,1.93-1.31,3.74-2.75,5.65-4.25,1.13-.84,2.34-1.92,3.83-2.12,2.83-.08,3.03,2.59,2.46,4.64-1.18,4.53-1.13,8.95.81,13.17.91,2.02,2.23,3.85,3.92,5.22,1.78,1.47,4.12,2.14,6.1,3.48,2.13,1.44,3.85,2.97,5.67,4.82,2.05,2.05,1.72,4.75-1.11,5.85-5.07,1.78-10.29,2.9-14.53,6.33-2.78,2.04-5.62,4.45-5.32,8.09.07,1.11.46,2.23.74,3.42.62,2.38.33,5.17-1.29,7.1-4.97,4.74-5.62,9.78-4.43,16.3.1,1.19.37,2.7-.78,3.52h0Z"/>
  <path class="cls-1" d="M203.77,18.34c-.69-.04-6.69-.29-9.95,4.3-2.64,3.72-1.63,8.03-1.13,10.17.46,1.98,1.25,5.3,4.3,7.46,4.25,3.01,9.42,1.26,10.4.9.81-.3,6.28-2.4,7.69-8.14,1.52-6.21-3.15-10.85-3.62-11.3-.71-.68-3.45-3.14-7.69-3.39Z"/>
  <path class="cls-1" d="M32.29,191.4c-2.33-.19-3.69-.31-5.31.23-3.76,1.23-5.59,4.84-6.1,5.99-.2.45-2.62,6.16.79,11.3,2.33,3.51,5.89,4.52,6.78,4.75,5.74,1.44,10.22-2.19,10.85-2.71.78-.66,4.04-3.39,4.41-8.03.31-3.87-1.47-7.98-4.63-9.95-1.89-1.18-3.86-1.34-6.78-1.58Z"/>
  <path class="cls-1" d="M203.21,363.11c-5.03.59-9.13,4.14-10.29,8.82-1.01,4.11.43,8.35,3.28,11.08,3.41,3.26,9,4.53,13.56,1.92,4.28-2.45,6.09-7.41,5.43-11.64-.85-5.45-5.81-9.83-11.98-10.17Z"/>
  <path class="cls-1" d="M367.91,193.1c-3.31,2.79-3.76,7.08-3.84,7.91-.12,1.12-.45,4.86,2.03,8.36,3.39,4.79,9.07,4.97,9.5,4.97,4.54.07,8.76-2.52,10.85-6.56,2.13-4.11,1.74-9.13-.9-12.66-4.2-5.6-12.97-5.96-17.63-2.03Z"/>
  <path class="cls-1" d="M33.63,188.66c.46-51.07,28.53-99.92,70.66-128.29,24.98-17.26,54.98-27.34,85.29-28.57,0,0,.02.24.02.24C106.68,38.34,38.57,105.73,33.63,188.66h0Z"/>
  <path class="cls-1" d="M222.1,31.33c39.12,3.24,76.95,20.9,104.66,48.7,26.06,26.1,42.94,61.04,47.37,97.63.26,2.43.49,4.86.67,7.29,0,0-.24.03-.24.03-4.17-36.25-19.75-71.11-44.41-98.03-1.69-1.73-6-6.16-7.63-7.84-1.73-1.57-6.33-5.72-8.11-7.33-26.5-22.43-58.61-35.43-92.32-40.44h0Z"/>
  <path class="cls-1" d="M375.41,219.63c-3.53,75.9-59.76,139.3-134.43,152.61-7.41,1.31-14.91,2.25-22.43,2.44,0,0-.02-.24-.02-.24,4.98-.39,9.95-.95,14.87-1.82,17.12-2.89,34.17-8.38,49.67-16.22,23.47-11.62,44.03-29.16,59.63-50.16,18.88-25.5,29.29-55.68,32.7-86.61h0Z"/>
  <path class="cls-1" d="M185.98,375.29c-39.73-2.26-78.21-19.91-106.32-48.02-24.53-24.69-41.07-57.28-46.27-91.7-.81-4.88-1.29-9.81-1.55-14.73,2.55,18.95,7.27,38.95,15.85,56.63,26.17,55.83,77.97,90.72,138.29,97.81h0Z"/>
</svg>