<?xml version="1.0" encoding="UTF-8"?>
<svg id="Layer_1" data-name="Layer 1" xmlns="http://www.w3.org/2000/svg" viewBox="0 0 909.89 663.11">
  <defs>
    <style>
      .cls-1 {
        fill: #231f20;
      }

      .cls-2 {
        fill: #e6e7e8;
      }
    </style>
  </defs>
  <path class="cls-2" d="M163.4,152.67c-39.22,9.49-111.27,26.92-145.01,89.95-43.99,82.17-6.51,211.27,85.3,255.12,105.27,50.28,222.64-39.87,267.53-121.75,5.01-9.14,61.23-115.02,10.08-185.33-56.12-77.14-192.52-44.14-217.9-38Z"/>
  <path class="cls-1" d="M51.24,295.49c3.6,5.47,13.72,20.56,32.64,43.74,16.3,19.97,19.25,21.58,35.25,41.57,14.02,17.52,21.03,26.28,25.76,35.62,3.9,7.7,13.26,26.67,13.86,51.66.62,26.11-8.64,43.76-4.73,45.58,2.84,1.32,10.15-8.06,13.92-14.37,6.12-10.22,7.5-19.95,8.8-29.79,1.47-11.16,1.04-19.75.93-21.64-.3-5.22-1.62-21.82-10.9-41.97-7.14-15.51-15.84-25.45-33.25-45.33-18.27-20.86-21.33-20.44-34.29-37.57-4.77-6.32-9.13-12.68-20.04-26.93-7.83-10.23-11.74-15.34-14.76-18.63-12.86-14.03-32.03-28.33-35.55-25.23-3.89,3.43,11.93,27.45,22.36,43.29Z"/>
  <path class="cls-1" d="M159.1,359.19c-.94-7.85-.23-12.64-3.23-20.89-.92-2.53-3.7-9.95-10.03-16.72-3.86-4.13-9.4-8.4-29.24-15.19-22.31-7.64-31.04-7.63-31.12-10.35-.11-4.06,19.15-9.49,37.42-8.28,4.83.32,12.91.93,22.36,5.16,4.44,1.99,16.62,7.64,24.37,20.36,2.24,3.67,5.44,10.14,6.86,29.54,1.35,18.41,1.12,49-3.99,49.59-3.97.46-11.48-17.06-13.41-33.2Z"/>
  <path class="cls-1" d="M45.79,255.35c1.24-4.42,37.69,6.07,91.88,9.75,50.96,3.46,86.07-1.24,107.08-5.16,17.96-3.35,48.3-10.38,75.26-29.67,12.02-8.6,17.7-15.59,20.21-18.92,11.15-14.79,15.44-30.59,18.49-42.57,4.94-19.4,3.95-29.54,6.74-29.82,3.68-.36,11.18,16.76,10.03,34.55-1.16,18.13-10.51,31.33-18.92,41.28-10.78,12.75-25.15,25.73-45.15,37.41-27.46,16.04-51.87,21.66-66.66,24.94-17.69,3.93-31.43,4.77-58.92,6.45-34.96,2.14-70.14,2.53-109.66-12.04-12.61-4.65-31.3-12.97-30.39-16.2Z"/>
  <path class="cls-1" d="M175.09,493.88c2.08,1.16,14.77-11.84,21.5-30.1,7.5-20.35,4.37-38.4,2.15-51.17-2-11.5-7.34-33.25-13.33-33.11-3.53.08-6.45,8.45-8.17,13.33-2.28,6.49-2.53,11.86-2.58,13.33-.34,10.38,3.25,15.34,6.02,25.37,3.46,12.52,3.06,22.94,2.58,28.38-1.85,21.1-10.01,32.95-8.17,33.97Z"/>
  <path class="cls-1" d="M176.81,299.22c15.68,4.28,15.8,2.43,27.52,5.73,1.8.51,27.73,8.04,44.72,23.51,1.3,1.18,5.25,4.87,8.89,8.31,8.72,8.25,10.48,10.2,13.76,13.19,1.61,1.47,19.29,17.5,22.08,15.19,2.82-2.34-7.79-25.03-26.09-42.14-16.8-15.72-34.67-21.67-49.31-26.38-33.82-10.87-67.68-10.62-68.23-7.45-.46,2.63,21.82,8.71,26.66,10.03Z"/>
  <path class="cls-1" d="M254.16,338.19c-2.55-.48-4.69,6.59-10.55,16.08-10.25,16.61-17.23,16.91-27.57,31.04-11.12,15.22-16.8,33.71-14,35.47,2.51,1.58,9.58-11.69,32.68-33.83,12.14-11.64,19.47-16.87,22.08-28.1,2.19-9.43.36-20.1-2.64-20.66Z"/>
  <path class="cls-1" d="M283.89,335.92c3.19,2.67,28.04-22.16,40.28-35.26,20.48-21.93,35.86-38.75,43.65-64.75,5.44-18.17,5.82-36.31,3.95-36.74-1.21-.28-3.02,6.9-10.03,20.93-4.68,9.36-8.93,16.26-12.33,21.79-1.95,3.17-7.31,11.85-13.76,20.64-10.67,14.55-16.38,18.58-25.52,29.24-15.87,18.54-28.99,41.84-26.23,44.15Z"/>
  <path class="cls-1" d="M219.52,285.74c1.09-2.58,15.88,7.09,38.7,4.3,21.53-2.63,37.72-14.73,46.59-21.36,18.82-14.07,27.41-28.15,29.82-26.52,2.28,1.54-4.05,15.13-9.03,23.65-3.81,6.51-9.91,16.7-21.65,25.95-6.24,4.91-18.04,14.21-34.4,15.77-27.64,2.64-51.46-18.39-50.03-21.79Z"/>
</svg>