<?xml version="1.0" encoding="UTF-8"?>
<svg id="Layer_1" data-name="Layer 1" xmlns="http://www.w3.org/2000/svg" viewBox="0 0 477.09 377.74">
  <defs>
    <style>
      .cls-1 {
        fill: #231f20;
      }

      .cls-2 {
        fill: #e6e7e8;
      }
    </style>
  </defs>
  <path class="cls-2" d="M230.57,0C165.79.23,60.4,28.03,26.06,120.5c-25.37,68.3-1.36,143.32,40.81,190.11,51.5,57.15,121.18,62.34,160.82,65.29,41.1,3.06,156.86,11.68,210.27-69.61,43.41-66.07,19.89-152.33-11.04-202.59C364.09,1.62,241.11-.04,230.57,0Z"/>
  <path class="cls-1" d="M45.35,229.38c4.35-1.37,7.98-4.27,11.08-7.54,3.17-3.22,5.85-6.9,8.09-10.8,4.37-7.63,6.73-17.18,3.44-25.58-5.02-13.08-19.72-17.28-31.82-21.45-4.21-1.4-8.5-2.53-12.63-1.99-8.59,1.08-14.87,8.76-18.19,16.38-7.61,17.07-2.01,36.57,14.18,46.42,7.58,4.69,17.12,7.17,25.86,4.56h0ZM45.35,229.38c-8.75,2.67-18.33.28-26.08-4.2-7.83-4.53-14.38-11.71-17.36-20.51-4.34-13.17-1.21-28.96,8.58-39.04,7.92-7.93,16.56-8.01,26.56-4.35,8.61,3.13,17.48,6.09,24.52,12.23,7.18,6.02,10.62,16.05,8.48,25.16-2.22,11.19-13.61,27.2-24.69,30.72h0Z"/>
  <path class="cls-1" d="M57.23,123.16c-3.2,13.72,5.26,26.83,14.73,36.02,6.37,6.49,15.36,9.37,24.25,7.55,29.51-6.34,38.2-40.91,15.53-60.61-18.23-15.36-48.02-5.7-54.51,17.05h0ZM57.23,123.16c2.27-8.87,8.87-16.15,16.69-20.67,16.65-10.01,38.61-4.51,48.38,12.44,13.33,22.68-.09,49.61-25.75,53.82-9.44,1.53-18.86-1.84-25.25-8.91-9.06-9.68-17.33-22.93-14.07-36.68h0Z"/>
  <path class="cls-1" d="M152.65,75.99c-4.45,18.17,6.76,37.78,25.66,40.68,9.81,1.66,20.35-1.07,27.55-7.81,9.21-8.25,10.56-21.75,8.75-33.4-1.58-8.36-2.68-18.17-9.09-24.29-6.68-5.99-16.97-5.21-25.09-2.61-12.77,4.15-24.38,14.1-27.78,27.43h0ZM152.65,75.99c3.37-13.43,14.83-23.54,27.47-28.33,10.82-4.17,25.11-4,31.3,7.47,3.46,6.13,4.73,13.06,6.03,19.89,2.44,13.83-.2,29.67-12.61,38.03-15.54,10.86-39.46,6.15-48.51-10.65-4.5-7.9-5.79-17.57-3.69-26.4h0Z"/>
  <path class="cls-1" d="M431.75,229.38c-11.1-3.53-22.46-19.52-24.69-30.72-2.14-9.11,1.29-19.14,8.48-25.16,7.04-6.14,15.91-9.1,24.52-12.23,9.99-3.66,18.65-3.58,26.56,4.35,9.8,10.08,12.92,25.86,8.58,39.04-2.98,8.8-9.53,15.99-17.36,20.51-7.75,4.48-17.33,6.86-26.08,4.2h0ZM431.75,229.38c8.75,2.61,18.28.13,25.86-4.56,16.19-9.85,21.79-29.35,14.18-46.42-3.31-7.63-9.6-15.3-18.19-16.38-4.13-.54-8.42.6-12.63,1.99-12.09,4.17-26.81,8.37-31.82,21.45-3.3,8.41-.93,17.95,3.44,25.58,2.24,3.9,4.92,7.58,8.09,10.8,3.09,3.27,6.73,6.17,11.08,7.54h0Z"/>
  <path class="cls-1" d="M419.86,123.16c3.26,13.76-5,26.99-14.07,36.68-6.39,7.07-15.82,10.44-25.25,8.91-25.66-4.22-39.08-31.15-25.75-53.82,9.77-16.94,31.73-22.45,48.38-12.44,7.82,4.52,14.42,11.8,16.69,20.67h0ZM419.86,123.16c-6.49-22.75-36.28-32.4-54.51-17.05-22.67,19.71-13.99,54.27,15.53,60.61,8.89,1.82,17.88-1.06,24.25-7.55,9.46-9.19,17.93-22.3,14.73-36.02h0Z"/>
  <path class="cls-1" d="M324.45,75.99c2.1,8.83.81,18.5-3.69,26.4-9.06,16.8-32.97,21.52-48.51,10.65-12.41-8.36-15.04-24.19-12.6-38.03,1.8-8.95,3.33-19.07,10.58-25.4,7.46-6.19,18.26-5.07,26.76-1.95,12.64,4.79,24.1,14.9,27.47,28.33h0ZM324.45,75.99c-3.4-13.33-15.01-23.28-27.78-27.43-8.11-2.6-18.4-3.38-25.09,2.61-6.41,6.12-7.5,15.93-9.09,24.29-1.82,11.65-.46,25.16,8.75,33.4,7.2,6.74,17.74,9.47,27.55,7.81,18.89-2.9,30.11-22.51,25.65-40.68h0Z"/>
  <path class="cls-1" d="M165.61,203.45c-15.27-5.59-32.34.41-43.86,11.09-23.15,20.73-20.44,49.38,9.51,60.99,8.27,3.02,22,5.31,27.83-2.93,2.69-4.28,4.08-9.87,7.26-14.08,3.17-4.44,7.34-8.11,12.13-10.7,4.34-2.61,10.77-2.79,12.35-8.36,3.61-14.36-12.37-31.57-25.23-36.01h0ZM165.61,203.45c12.23,4.65,22.77,15.44,26.12,28.22,1.33,5.27.31,11.92-5.38,14.12-7.35,2.79-14,7.22-18.28,13.9-4.69,6.77-4.62,16.45-13.49,19.8-17.01,6.23-41.65-5.84-48.21-22.52-4.43-10.25-1.99-22.23,4.07-31.21,11.57-17.36,34.49-29.76,55.17-22.3h0Z"/>
  <path class="cls-1" d="M308.31,203.45c20.69-7.45,43.6,4.95,55.17,22.3,9.97,14.82,8.16,32.68-5.68,44.37-8.4,7.05-19.19,11.24-30.24,11.01-5.54-.18-11.82-2.07-14.9-7.1-1.57-2.44-2.39-5.04-3.36-7.45-1.84-4.87-4.59-9.25-8.43-12.78-1.88-1.78-3.94-3.36-6.18-4.66-4.34-2.69-11.19-3.5-12.53-9.4-1.44-5.35.46-10.82,2.86-15.55,4.99-9.34,13.32-17.03,23.27-20.74h0ZM308.31,203.45c-12.85,4.43-28.84,21.66-25.23,36.01,1.58,5.57,8.02,5.75,12.35,8.36,4.79,2.6,8.96,6.26,12.13,10.7,3.18,4.21,4.57,9.8,7.26,14.08,5.84,8.25,19.55,5.95,27.83,2.93,29.94-11.61,32.66-40.25,9.51-60.99-11.52-10.68-28.58-16.68-43.86-11.09h0Z"/>
  <path class="cls-1" d="M195.13,177.17c-2.66,10.49,3.45,20.82,10.58,28.07,14.46,14.9,37.77,21.37,56.5,10.75,12.31-6.93,25.24-21.01,23.16-36.05-2.88-15.97-21.76-21.1-35.73-23.09-17.13-2.31-48.78.65-54.52,20.32h0ZM195.13,177.17c4.48-15.63,24.67-20.27,38.88-21.82,10.52-.99,21.22-.03,31.39,2.96,36.38,10.76,25.25,45.57-1.98,59.95-19.76,10.4-43.51,3.14-58.01-12.73-6.97-7.46-13-17.86-10.28-28.36h0Z"/>
  <path class="cls-1" d="M170.76,257.05c16.45-3.83,34.44-5.16,50.36,1.55,10.49,4.36,19.4,14.75,19.97,26.43.2,10.27-7.71,14.54-14.19,20.58-7.56,8.05,7.34,13.17,12.87,15.51-5.17-1.83-16.44-5.29-15.45-12.29,1.16-4.22,5.5-6.41,8.44-9.28,4.26-3.61,7.7-8.71,7.42-14.5-.13-5.67-2.88-10.95-6.21-15.42-3.36-4.52-8.07-7.95-13.23-10.2-15.7-6.8-33.75-5.4-49.99-2.39h0Z"/>
  <path class="cls-1" d="M309.79,257.15c-19.64-3.55-49.17-4.52-62.55,12.96-3.26,4.34-5.97,9.44-6.12,14.96-.27,5.61,3.01,10.41,7.11,14.02,2.93,2.94,7.36,5.26,8.47,9.66,1,7.36-10.48,10.6-15.9,12.38,4.72-1.99,16.4-5.27,15.32-12.26-1.17-4.17-5.48-6.33-8.41-9.2-4.3-3.62-7.77-8.79-7.5-14.61.12-5.71,2.88-11.03,6.22-15.53,13.61-17.72,43.78-16.88,63.35-12.37h0Z"/>
  <g>
    <path class="cls-1" d="M240.81,284.47c-4.28-48.17-39.81-85.83-81.51-106.79-13.94-7.06-28.88-12.09-44.22-15.1,15.23,2.37,30.58,7.55,44.57,14.41,41.87,20.55,78.29,59.26,81.17,107.49h0Z"/>
    <path class="cls-1" d="M191.52,197.39c-32.56-15.71-71.77-16.84-104.83-1.99-4.74,2.04-9.37,4.38-13.83,7.01l-.05-.08c35-22.5,82.19-24.54,118.71-4.94h0Z"/>
    <path class="cls-1" d="M188.61,195.38c-11.59-18.92-15.95-42.12-12.13-63.97.66-3.03,1.19-6.48,2.26-9.19-6.01,24.61-1.9,51.08,9.87,73.16h0Z"/>
  </g>
  <g>
    <path class="cls-1" d="M241.35,284.46c2.33-48.68,38.79-87.71,80.99-108.04,14.13-6.89,29.32-11.52,44.83-13.95-15.13,2.96-30.53,7.56-44.48,14.64-42.42,21.05-77.47,58.64-81.34,107.34h0Z"/>
    <path class="cls-1" d="M290.69,197.3c31.94-17.82,72.44-18.9,105.26-2.74,4.66,2.3,9.17,4.9,13.49,7.77l-.05.08c-35.49-22.64-81.52-24.09-118.7-5.11h0Z"/>
    <path class="cls-1" d="M293.56,195.33c9.58-19.69,13.86-41.98,11.3-63.79-.2-3.09-.99-6.44-1.25-9.35,5.94,24.41,2.33,51.46-10.05,73.14h0Z"/>
  </g>
</svg>